<?xml version="1.0" encoding="UTF-8"?>
<svg width="23px" height="20px" viewBox="0 0 23 20" version="1.1" xmlns="http://www.w3.org/2000/svg" xmlns:xlink="http://www.w3.org/1999/xlink">
    <!-- Generator: Sketch 61 (89581) - https://sketch.com -->
    <title>Shape</title>
    <desc>Created with Sketch.</desc>
    <g id="Welcome" stroke="none" stroke-width="1" fill="none" fill-rule="evenodd">
        <g id="Desktop-Home" transform="translate(-1379.000000, -35.000000)">
            <rect id="Rectangle" fill-opacity="0.95" fill="#EEEEEE" x="0" y="0" width="1440" height="90"></rect>
            <path d="M1401.29506,53 L1379.70447,53 C1379.31513,53 1379,53.30421 1379,53.6790403 L1379,54.3209597 C1379,54.69579 1379.31513,55 1379.70447,55 L1401.29553,55 C1401.6844,55 1402,54.69579 1402,54.3209597 L1402,53.6790403 C1401.99953,53.30421 1401.68393,53 1401.29506,53 Z M1401.29506,44 L1379.70447,44 C1379.31513,44 1379,44.3038261 1379,44.679194 L1379,45.3203532 C1379,45.6957211 1379.31513,46 1379.70447,46 L1401.29553,46 C1401.6844,46 1402,45.6957211 1402,45.3203532 L1402,44.679194 C1401.99953,44.3038261 1401.68393,44 1401.29506,44 Z M1401.29506,35 L1379.70447,35 C1379.31513,35 1379,35.30421 1379,35.6790403 L1379,36.3209597 C1379,36.69579 1379.31513,37 1379.70447,37 L1401.29553,37 C1401.6844,37 1402,36.69579 1402,36.3209597 L1402,35.6790403 C1401.99953,35.30421 1401.68393,35 1401.29506,35 Z" id="Shape" fill="#000000" fill-rule="nonzero"></path>
        </g>
    </g>
</svg>