<svg xmlns="http://www.w3.org/2000/svg" viewBox="0 0 28.91 28.91"><defs><style>.cls-1{fill:#d0d0cd;}.cls-2{fill:#141315;}</style></defs><g id="Capa_2" data-name="Capa 2"><g id="Capa_1-2" data-name="Capa 1"><circle class="cls-1" cx="14.45" cy="14.45" r="14.45"/><path class="cls-2" d="M22.4,8.45a.08.08,0,0,0-.06-.07h-.1l-1.71,1.68L18.77,8.3l1.71-1.71a.09.09,0,0,0,0-.13l0,0a4,4,0,0,0-3.59,1,2.63,2.63,0,0,0-.53,2.67c0,.1,0,.21.05.29-.6.64-5.2,5.26-5.88,5.91l-.25-.06a2.56,2.56,0,0,0-2.68.51,4,4,0,0,0-1,3.55.11.11,0,0,0,.12.08l0,0,1.71-1.67,1.76,1.77-1.71,1.7a.1.1,0,0,0,0,.14l0,0a4.6,4.6,0,0,0,.84.09,3.93,3.93,0,0,0,2.75-1.1,2.65,2.65,0,0,0,.53-2.68c0-.09,0-.21-.06-.28.61-.65,5.21-5.26,5.89-5.91l.25.06a2.56,2.56,0,0,0,2.68-.5A4,4,0,0,0,22.4,8.45Z"/></g></g></svg>