<svg xmlns="http://www.w3.org/2000/svg" viewBox="0 0 29.09 28.74"><defs><style>.cls-1{fill:#d0d0cd;}.cls-2{fill:#121113;}</style></defs><g id="Capa_2" data-name="Capa 2"><g id="Capa_1-2" data-name="Capa 1"><path class="cls-1" d="M14.5,0a14.37,14.37,0,1,1,.15,28.74A14.37,14.37,0,1,1,14.5,0Z"/><path class="cls-2" d="M5.29,13.09a.38.38,0,0,0-.39.39v1.94a.39.39,0,1,0,.77,0V13.48A.38.38,0,0,0,5.29,13.09Z"/><path class="cls-2" d="M7.23,11.5a.39.39,0,0,0-.39.38v5.39a.4.4,0,0,0,.39.39.39.39,0,0,0,.39-.39V11.88A.38.38,0,0,0,7.23,11.5Z"/><path class="cls-2" d="M9.17,8.81a.38.38,0,0,0-.38.39V20.09a.39.39,0,1,0,.77,0V9.2A.38.38,0,0,0,9.17,8.81Z"/><path class="cls-2" d="M11.12,10.75a.39.39,0,0,0-.39.39v6.61a.38.38,0,0,0,.39.39.39.39,0,0,0,.39-.39V11.14A.4.4,0,0,0,11.12,10.75Z"/><path class="cls-2" d="M17,9.81a.4.4,0,0,0-.39.39V19a.39.39,0,0,0,.39.39.38.38,0,0,0,.39-.39V10.2A.39.39,0,0,0,17,9.81Z"/><path class="cls-2" d="M20.84,10.37a.39.39,0,0,0-.39.38v7.78a.39.39,0,0,0,.39.39.38.38,0,0,0,.39-.39V10.75A.38.38,0,0,0,20.84,10.37Z"/><path class="cls-2" d="M22.79,12.31a.38.38,0,0,0-.39.39v3.89a.39.39,0,0,0,.39.39.4.4,0,0,0,.39-.39V12.7A.39.39,0,0,0,22.79,12.31Z"/><path class="cls-2" d="M18.9,7.25a.39.39,0,0,0-.39.39v14a.38.38,0,0,0,.39.39.39.39,0,0,0,.39-.39v-14A.4.4,0,0,0,18.9,7.25Z"/><path class="cls-2" d="M13.06,13.48a.39.39,0,0,0-.39.39v1.55a.39.39,0,0,0,.39.39.38.38,0,0,0,.39-.39V13.87A.38.38,0,0,0,13.06,13.48Z"/><path class="cls-2" d="M24.73,13.35a.39.39,0,0,0-.39.39v1.68a.4.4,0,0,0,.39.39.39.39,0,0,0,.39-.39V13.74A.38.38,0,0,0,24.73,13.35Z"/><path class="cls-2" d="M15,12.61a.39.39,0,0,0-.39.38v3.17a.4.4,0,0,0,.39.39.39.39,0,0,0,.39-.39V13A.38.38,0,0,0,15,12.61Z"/></g></g></svg>