<svg xmlns="http://www.w3.org/2000/svg" viewBox="0 0 28.91 28.91"><defs><style>.cls-1{fill:#d0d0cd;}.cls-2{fill:#131113;}</style></defs><g id="Capa_2" data-name="Capa 2"><g id="Capa_1-2" data-name="Capa 1"><circle class="cls-1" cx="14.45" cy="14.45" r="14.45"/><path class="cls-2" d="M15.61,7.84a.52.52,0,0,0-.54.06l-5,4H7.67a1,1,0,0,0-1,1v4.12a1,1,0,0,0,1,1h2.39l5,4a.48.48,0,0,0,.32.11.42.42,0,0,0,.22-.05.5.5,0,0,0,.29-.46V8.31A.52.52,0,0,0,15.61,7.84Z"/><path class="cls-2" d="M18.51,11.36a.51.51,0,1,0-.72.73,4.13,4.13,0,0,1,0,5.82.51.51,0,0,0,0,.72.54.54,0,0,0,.37.16.51.51,0,0,0,.36-.15,5.14,5.14,0,0,0,0-7.28Z"/><path class="cls-2" d="M20,9.91a.51.51,0,1,0-.72.73,6.16,6.16,0,0,1,0,8.72.52.52,0,0,0,0,.73.55.55,0,0,0,.37.15.51.51,0,0,0,.36-.15A7.17,7.17,0,0,0,20,9.91Z"/></g></g></svg>